<svg xmlns="http://www.w3.org/2000/svg" width="21.901" height="21.901" viewBox="0 0 21.901 21.901"><defs><style>.a{fill:#969696;}</style></defs><g transform="translate(0)"><path class="a" d="M18.16,12.875H13.317l2.523-4.024a5.776,5.776,0,1,0-9.778,0l2.524,4.026H3.74L0,21.9H21.9Zm-3.291,5.133H18.9l1.081,2.609H15.2Zm-.961,2.609H7.987l.324-2.609h5.264Zm4.459-3.893H14.705l-.327-2.567H17.3ZM6.458,5.775a4.492,4.492,0,1,1,8.294,2.393l-3.8,6.066-3.8-6.067a4.478,4.478,0,0,1-.689-2.392ZM10.951,16.65l1.562-2.491h.572l.327,2.567H8.471l.319-2.567h.6ZM4.6,14.159H7.5l-.319,2.567H3.534ZM3,18.008H7.018l-.325,2.609H1.921Zm0,0" transform="translate(0 0)"/><path class="a" d="M187.423,63.235a3.235,3.235,0,1,0-3.235,3.235A3.239,3.239,0,0,0,187.423,63.235Zm-5.176,0a1.941,1.941,0,1,1,1.941,1.941A1.943,1.943,0,0,1,182.247,63.235Zm0,0" transform="translate(-173.238 -57.412)"/></g></svg>