<svg xmlns="http://www.w3.org/2000/svg" width="21.431" height="26.956" viewBox="0 0 21.431 26.956"><defs><style>.a{fill:#141414;stroke:#141414;stroke-width:0.1px;}</style></defs><g transform="translate(0.052 0.05)"><path class="a" d="M74.334,22.146l-1.2-15.112A1.891,1.891,0,0,0,71.256,5.3H68.883V5.191a5.2,5.2,0,0,0-10.4,0V5.3H56.112a1.89,1.89,0,0,0-1.877,1.734l-1.2,15.117A4.376,4.376,0,0,0,57.4,26.856H69.968a4.376,4.376,0,0,0,4.367-4.709ZM60.06,5.191a3.624,3.624,0,0,1,7.248,0V5.3H60.06ZM72.025,24.385a2.777,2.777,0,0,1-2.057.9H57.4a2.8,2.8,0,0,1-2.8-3.012l1.2-15.117a.309.309,0,0,1,.307-.284h2.373V8.808a.788.788,0,0,0,1.576,0V6.871h7.248V8.808a.788.788,0,0,0,1.576,0V6.871h2.373a.309.309,0,0,1,.307.286l1.2,15.112A2.768,2.768,0,0,1,72.025,24.385Z" transform="translate(-53.02)"/></g></svg>