<svg xmlns="http://www.w3.org/2000/svg" width="25.132" height="30.656" viewBox="0 0 25.132 30.656"><defs><style>.a{fill:#fff;stroke:#fff;stroke-width:0.8px;}</style></defs><path class="a" d="M77.332,24.62l-1.37-16.8a2.135,2.135,0,0,0-2.142-1.93H71.114V5.771a5.933,5.933,0,0,0-11.861,0v.118H56.547a2.134,2.134,0,0,0-2.141,1.928L53.035,24.623A4.8,4.8,0,0,0,54.351,28.3a5.076,5.076,0,0,0,3.665,1.558H72.351A5.076,5.076,0,0,0,76.017,28.3,4.8,4.8,0,0,0,77.332,24.62ZM61.05,5.771a4.135,4.135,0,0,1,8.267,0v.118H61.05ZM74.7,27.11a3.207,3.207,0,0,1-2.347,1H58.016a3.207,3.207,0,0,1-2.347-1,3.029,3.029,0,0,1-.843-2.351L56.2,7.953a.349.349,0,0,1,.35-.315h2.706V9.792a.9.9,0,0,0,1.8,0V7.638h8.267V9.792a.9.9,0,0,0,1.8,0V7.638h2.706a.349.349,0,0,1,.35.318l1.37,16.8A3.031,3.031,0,0,1,74.7,27.11Z" transform="translate(-52.618 0.4)"/></svg>