<svg xmlns="http://www.w3.org/2000/svg" width="227.379" height="61.109" viewBox="0 0 227.379 61.109"><defs><style>.a{fill:#fff;}</style></defs><g transform="translate(-335.186 -82.793)"><g transform="translate(407.027 94.683)"><path class="a" d="M388.436,91.959v25.206h4.788V91.959Z" transform="translate(-388.436 -91.483)"/><path class="a" d="M410.889,91.959v16.725L399.233,91.959H394.45v25.206h4.783v-16.7l11.656,16.7h4.781V91.959Z" transform="translate(-386.336 -91.483)"/><path class="a" d="M453.231,96.121V91.959H435.22v25.206h18.011V113H440.008v-6.464h11.357V102.37H440.008V96.121Z" transform="translate(-372.102 -91.483)"/><path class="a" d="M466.8,91.959l-6.138,18.154-6.1-18.154h-5.115l9.282,25.206h3.836l9.348-25.206Z" transform="translate(-367.136 -91.483)"/><path class="a" d="M467.335,91.959v25.206h4.788V91.959Z" transform="translate(-360.89 -91.483)"/><path class="a" d="M494.007,100.517v-.294a7.768,7.768,0,0,0-2.759-6.333,11.255,11.255,0,0,0-7.4-2.284q-5.079,0-7.926,2.772t-2.851,8.3v3.941q0,5.519,2.83,8.3t7.913,2.772a11.133,11.133,0,0,0,7.411-2.3,7.97,7.97,0,0,0,2.74-6.464v-.183h-4.749v.183a4.051,4.051,0,0,1-1.4,3.268,5.893,5.893,0,0,1-3.926,1.187,5.705,5.705,0,0,1-4.5-1.677,7.568,7.568,0,0,1-1.5-5.152v-3.614q0-3.62,1.481-5.368a5.507,5.507,0,0,1,4.475-1.755,5.87,5.87,0,0,1,3.946,1.22,4.179,4.179,0,0,1,1.422,3.347v.143Z" transform="translate(-358.887 -91.606)"/><path class="a" d="M508.385,96.121V91.959H490.374v25.206h18.011V113H495.162v-6.464h11.357V102.37H495.162V96.121Z" transform="translate(-352.847 -91.483)"/><g transform="translate(0 33.649)"><path class="a" d="M388.436,116.626h.772v7.4h-.772Z" transform="translate(-388.436 -116.519)"/><path class="a" d="M394.333,116.626v7.4h-.784l-2.531-5.685v5.685h-.783v-7.4h.783l2.531,5.7v-5.7Z" transform="translate(-387.808 -116.519)"/><path class="a" d="M398.575,116.626v7.4h-.783l-2.531-5.685v5.685h-.784v-7.4h.784l2.531,5.7v-5.7Z" transform="translate(-386.327 -116.519)"/><path class="a" d="M399.217,123.576a2.318,2.318,0,0,1-.548-1.68v-3.09a2.329,2.329,0,0,1,.548-1.694,2.187,2.187,0,0,1,2.917,0,2.335,2.335,0,0,1,.548,1.694v3.09a2.308,2.308,0,0,1-.553,1.68,2.165,2.165,0,0,1-2.911,0Zm2.365-.526a1.757,1.757,0,0,0,.316-1.143v-3.025a1.981,1.981,0,0,0-.31-1.217,1.071,1.071,0,0,0-.9-.4,1.1,1.1,0,0,0-.928.4,2,2,0,0,0-.306,1.222v3.025q0,1.524,1.234,1.523A1.1,1.1,0,0,0,401.582,123.05Z" transform="translate(-384.863 -116.544)"/><path class="a" d="M402.434,116.626h.838l1.34,6.179,1.33-6.179h.836l-1.79,7.4h-.751Z" transform="translate(-383.549 -116.519)"/><path class="a" d="M409.237,122.14H407.07l-.472,1.887h-.815l2.017-7.4h.719l2.016,7.4h-.826Zm-.171-.676-.912-3.657-.912,3.657Z" transform="translate(-382.38 -116.519)"/><path class="a" d="M413.3,117.324h-1.523v6.7H411v-6.7h-1.522v-.7H413.3Z" transform="translate(-381.089 -116.519)"/><path class="a" d="M413.276,116.626h.772v7.4h-.772Z" transform="translate(-379.764 -116.519)"/><path class="a" d="M414.827,116.626h.836L417,122.8l1.329-6.179h.838l-1.792,7.4h-.751Z" transform="translate(-379.222 -116.519)"/><path class="a" d="M419.773,117.324v2.585h2.168v.708h-2.168v2.713h2.522v.7H419v-7.4h3.293v.7Z" transform="translate(-377.765 -116.519)"/><path class="a" d="M424.153,116.626h1.92a1.937,1.937,0,0,1,1.449.559,2.315,2.315,0,0,1,.546,1.684v2.917a2.324,2.324,0,0,1-.546,1.68,1.93,1.93,0,0,1-1.449.563h-1.92Zm1.92,6.7a1.092,1.092,0,0,0,.9-.386,1.78,1.78,0,0,0,.317-1.147v-2.853a1.976,1.976,0,0,0-.312-1.218,1.073,1.073,0,0,0-.9-.4h-1.137v6.006Z" transform="translate(-375.966 -116.519)"/><path class="a" d="M428.971,117.324v2.585h2.168v.708h-2.168v2.713h2.522v.7H428.2v-7.4h3.293v.7Z" transform="translate(-374.554 -116.519)"/><path class="a" d="M431.5,116.626h.836l1.341,6.179,1.33-6.179h.836l-1.79,7.4H433.3Z" transform="translate(-373.403 -116.519)"/><path class="a" d="M435.7,116.626h.772v7.4H435.7Z" transform="translate(-371.937 -116.519)"/><path class="a" d="M438.007,123.576a2.3,2.3,0,0,1-.557-1.68v-3.09a2.321,2.321,0,0,1,.552-1.689,1.961,1.961,0,0,1,1.465-.563,1.984,1.984,0,0,1,1.437.537,2.142,2.142,0,0,1,.557,1.619v.1h-.783v-.074a1.609,1.609,0,0,0-.326-1.116,1.134,1.134,0,0,0-.874-.353,1.118,1.118,0,0,0-.934.391,1.964,1.964,0,0,0-.312,1.228v3.025q0,1.524,1.245,1.523a1.134,1.134,0,0,0,.88-.353,1.577,1.577,0,0,0,.321-1.083v-.1h.762V122a2.141,2.141,0,0,1-.548,1.6,1.949,1.949,0,0,1-1.415.532A1.98,1.98,0,0,1,438.007,123.576Z" transform="translate(-371.324 -116.544)"/><path class="a" d="M442.321,117.324v2.585h2.167v.708h-2.167v2.713h2.52v.7h-3.293v-7.4h3.293v.7Z" transform="translate(-369.893 -116.519)"/><path class="a" d="M447.484,117.324v2.617h2.167v.708h-2.167v3.378H446.7v-7.4h3.293v.7Z" transform="translate(-368.095 -116.519)"/><path class="a" d="M450.595,123.576a2.319,2.319,0,0,1-.548-1.68v-3.09a2.329,2.329,0,0,1,.548-1.694,2.187,2.187,0,0,1,2.917,0,2.335,2.335,0,0,1,.548,1.694v3.09a2.308,2.308,0,0,1-.553,1.68,2.165,2.165,0,0,1-2.911,0Zm2.365-.526a1.757,1.757,0,0,0,.316-1.143v-3.025a1.981,1.981,0,0,0-.31-1.217,1.071,1.071,0,0,0-.9-.4,1.1,1.1,0,0,0-.928.4,2,2,0,0,0-.306,1.222v3.025q0,1.524,1.234,1.523A1.1,1.1,0,0,0,452.96,123.05Z" transform="translate(-366.926 -116.544)"/><path class="a" d="M456.143,120.788h-1.191v3.239h-.783v-7.4h1.952a1.785,1.785,0,0,1,1.421.515,2.366,2.366,0,0,1,.445,1.577q0,1.587-1.094,1.952l1.309,3.357h-.836Zm-1.191-.687h1.159a.974.974,0,0,0,.831-.348,1.7,1.7,0,0,0,.263-1.035,1.794,1.794,0,0,0-.252-1.047.971.971,0,0,0-.842-.348h-1.159Z" transform="translate(-365.487 -116.519)"/><path class="a" d="M459.869,116.626h.772v7.4h-.772Z" transform="translate(-363.497 -116.519)"/><path class="a" d="M465.766,116.626v7.4h-.784l-2.531-5.685v5.685h-.782v-7.4h.782l2.531,5.7v-5.7Z" transform="translate(-362.868 -116.519)"/><path class="a" d="M466.238,123.593a2.332,2.332,0,0,1-.51-1.566h.762a1.666,1.666,0,0,0,.337,1.079,1.141,1.141,0,0,0,.874.326,1.085,1.085,0,0,0,.863-.326,1.5,1.5,0,0,0,.285-1,1.363,1.363,0,0,0-.252-.89,2.355,2.355,0,0,0-.907-.568l-.429-.173a2.594,2.594,0,0,1-1.094-.739,1.872,1.872,0,0,1-.364-1.212,2,2,0,0,1,.51-1.438,1.835,1.835,0,0,1,1.4-.536,1.8,1.8,0,0,1,1.341.5,2.181,2.181,0,0,1,.536,1.495h-.739q-.075-1.3-1.148-1.3a1.048,1.048,0,0,0-.836.321,1.348,1.348,0,0,0-.279.912,1.25,1.25,0,0,0,.252.826,2.111,2.111,0,0,0,.863.537l.44.171a2.587,2.587,0,0,1,1.116.761,2.069,2.069,0,0,1,.375,1.319,2.1,2.1,0,0,1-.5,1.507,1.917,1.917,0,0,1-1.46.532A1.834,1.834,0,0,1,466.238,123.593Z" transform="translate(-361.451 -116.547)"/><path class="a" d="M473.189,117.324h-1.523v6.7h-.773v-6.7H469.37v-.7h3.819Z" transform="translate(-360.18 -116.519)"/><path class="a" d="M475.828,122.14h-2.167l-.472,1.887h-.815l2.017-7.4h.719l2.016,7.4H476.3Zm-.171-.676-.912-3.657-.912,3.657Z" transform="translate(-359.131 -116.519)"/><path class="a" d="M476.851,116.626h.784v6.7h2.509v.7h-3.293Z" transform="translate(-357.568 -116.519)"/><path class="a" d="M480.3,116.626h.784v6.7H483.6v.7H480.3Z" transform="translate(-356.363 -116.519)"/><path class="a" d="M484.526,117.324v2.585h2.167v.708h-2.167v2.713h2.52v.7h-3.292v-7.4h3.292v.7Z" transform="translate(-355.158 -116.519)"/><path class="a" d="M489.226,120.788h-1.191v3.239h-.782v-7.4H489.2a1.786,1.786,0,0,1,1.422.515,2.374,2.374,0,0,1,.444,1.577q0,1.587-1.093,1.952l1.307,3.357h-.836Zm-1.191-.687h1.159a.976.976,0,0,0,.832-.348,1.713,1.713,0,0,0,.262-1.035,1.783,1.783,0,0,0-.252-1.047.967.967,0,0,0-.842-.348h-1.159Z" transform="translate(-353.937 -116.519)"/><path class="a" d="M491.543,123.593a2.332,2.332,0,0,1-.51-1.566h.762a1.658,1.658,0,0,0,.339,1.079,1.136,1.136,0,0,0,.873.326,1.085,1.085,0,0,0,.863-.326,1.5,1.5,0,0,0,.285-1,1.363,1.363,0,0,0-.252-.89,2.376,2.376,0,0,0-.907-.568l-.429-.173a2.592,2.592,0,0,1-1.094-.739,1.872,1.872,0,0,1-.364-1.212,2,2,0,0,1,.51-1.438,1.835,1.835,0,0,1,1.4-.536,1.8,1.8,0,0,1,1.341.5,2.181,2.181,0,0,1,.536,1.495h-.739q-.075-1.3-1.148-1.3a1.045,1.045,0,0,0-.836.321,1.348,1.348,0,0,0-.279.912,1.25,1.25,0,0,0,.252.826,2.1,2.1,0,0,0,.863.537l.44.171a2.6,2.6,0,0,1,1.116.761,2.078,2.078,0,0,1,.375,1.319,2.1,2.1,0,0,1-.5,1.507,1.916,1.916,0,0,1-1.458.532A1.835,1.835,0,0,1,491.543,123.593Z" transform="translate(-352.617 -116.547)"/><path class="a" d="M388.436,116.626h.772v7.4h-.772Z" transform="translate(-388.436 -116.519)"/><path class="a" d="M394.333,116.626v7.4h-.784l-2.531-5.685v5.685h-.783v-7.4h.783l2.531,5.7v-5.7Z" transform="translate(-387.808 -116.519)"/><path class="a" d="M398.575,116.626v7.4h-.783l-2.531-5.685v5.685h-.784v-7.4h.784l2.531,5.7v-5.7Z" transform="translate(-386.327 -116.519)"/><path class="a" d="M399.217,123.576a2.318,2.318,0,0,1-.548-1.68v-3.09a2.329,2.329,0,0,1,.548-1.694,2.187,2.187,0,0,1,2.917,0,2.335,2.335,0,0,1,.548,1.694v3.09a2.308,2.308,0,0,1-.553,1.68,2.165,2.165,0,0,1-2.911,0Zm2.365-.526a1.757,1.757,0,0,0,.316-1.143v-3.025a1.981,1.981,0,0,0-.31-1.217,1.071,1.071,0,0,0-.9-.4,1.1,1.1,0,0,0-.928.4,2,2,0,0,0-.306,1.222v3.025q0,1.524,1.234,1.523A1.1,1.1,0,0,0,401.582,123.05Z" transform="translate(-384.863 -116.544)"/><path class="a" d="M402.434,116.626h.838l1.34,6.179,1.33-6.179h.836l-1.79,7.4h-.751Z" transform="translate(-383.549 -116.519)"/><path class="a" d="M409.237,122.14H407.07l-.472,1.887h-.815l2.017-7.4h.719l2.016,7.4h-.826Zm-.171-.676-.912-3.657-.912,3.657Z" transform="translate(-382.38 -116.519)"/><path class="a" d="M413.3,117.324h-1.523v6.7H411v-6.7h-1.522v-.7H413.3Z" transform="translate(-381.089 -116.519)"/><path class="a" d="M413.276,116.626h.772v7.4h-.772Z" transform="translate(-379.764 -116.519)"/><path class="a" d="M414.827,116.626h.836L417,122.8l1.329-6.179h.838l-1.792,7.4h-.751Z" transform="translate(-379.222 -116.519)"/><path class="a" d="M419.773,117.324v2.585h2.168v.708h-2.168v2.713h2.522v.7H419v-7.4h3.293v.7Z" transform="translate(-377.765 -116.519)"/><path class="a" d="M424.153,116.626h1.92a1.937,1.937,0,0,1,1.449.559,2.315,2.315,0,0,1,.546,1.684v2.917a2.324,2.324,0,0,1-.546,1.68,1.93,1.93,0,0,1-1.449.563h-1.92Zm1.92,6.7a1.092,1.092,0,0,0,.9-.386,1.78,1.78,0,0,0,.317-1.147v-2.853a1.976,1.976,0,0,0-.312-1.218,1.073,1.073,0,0,0-.9-.4h-1.137v6.006Z" transform="translate(-375.966 -116.519)"/><path class="a" d="M428.971,117.324v2.585h2.168v.708h-2.168v2.713h2.522v.7H428.2v-7.4h3.293v.7Z" transform="translate(-374.554 -116.519)"/><path class="a" d="M431.5,116.626h.836l1.341,6.179,1.33-6.179h.836l-1.79,7.4H433.3Z" transform="translate(-373.403 -116.519)"/><path class="a" d="M435.7,116.626h.772v7.4H435.7Z" transform="translate(-371.937 -116.519)"/><path class="a" d="M438.007,123.576a2.3,2.3,0,0,1-.557-1.68v-3.09a2.321,2.321,0,0,1,.552-1.689,1.961,1.961,0,0,1,1.465-.563,1.984,1.984,0,0,1,1.437.537,2.142,2.142,0,0,1,.557,1.619v.1h-.783v-.074a1.609,1.609,0,0,0-.326-1.116,1.134,1.134,0,0,0-.874-.353,1.118,1.118,0,0,0-.934.391,1.964,1.964,0,0,0-.312,1.228v3.025q0,1.524,1.245,1.523a1.134,1.134,0,0,0,.88-.353,1.577,1.577,0,0,0,.321-1.083v-.1h.762V122a2.141,2.141,0,0,1-.548,1.6,1.949,1.949,0,0,1-1.415.532A1.98,1.98,0,0,1,438.007,123.576Z" transform="translate(-371.324 -116.544)"/><path class="a" d="M442.321,117.324v2.585h2.167v.708h-2.167v2.713h2.52v.7h-3.293v-7.4h3.293v.7Z" transform="translate(-369.893 -116.519)"/><path class="a" d="M447.484,117.324v2.617h2.167v.708h-2.167v3.378H446.7v-7.4h3.293v.7Z" transform="translate(-368.095 -116.519)"/><path class="a" d="M450.595,123.576a2.319,2.319,0,0,1-.548-1.68v-3.09a2.329,2.329,0,0,1,.548-1.694,2.187,2.187,0,0,1,2.917,0,2.335,2.335,0,0,1,.548,1.694v3.09a2.308,2.308,0,0,1-.553,1.68,2.165,2.165,0,0,1-2.911,0Zm2.365-.526a1.757,1.757,0,0,0,.316-1.143v-3.025a1.981,1.981,0,0,0-.31-1.217,1.071,1.071,0,0,0-.9-.4,1.1,1.1,0,0,0-.928.4,2,2,0,0,0-.306,1.222v3.025q0,1.524,1.234,1.523A1.1,1.1,0,0,0,452.96,123.05Z" transform="translate(-366.926 -116.544)"/><path class="a" d="M456.143,120.788h-1.191v3.239h-.783v-7.4h1.952a1.785,1.785,0,0,1,1.421.515,2.366,2.366,0,0,1,.445,1.577q0,1.587-1.094,1.952l1.309,3.357h-.836Zm-1.191-.687h1.159a.974.974,0,0,0,.831-.348,1.7,1.7,0,0,0,.263-1.035,1.794,1.794,0,0,0-.252-1.047.971.971,0,0,0-.842-.348h-1.159Z" transform="translate(-365.487 -116.519)"/><path class="a" d="M459.869,116.626h.772v7.4h-.772Z" transform="translate(-363.497 -116.519)"/><path class="a" d="M465.766,116.626v7.4h-.784l-2.531-5.685v5.685h-.782v-7.4h.782l2.531,5.7v-5.7Z" transform="translate(-362.868 -116.519)"/><path class="a" d="M466.238,123.593a2.332,2.332,0,0,1-.51-1.566h.762a1.666,1.666,0,0,0,.337,1.079,1.141,1.141,0,0,0,.874.326,1.085,1.085,0,0,0,.863-.326,1.5,1.5,0,0,0,.285-1,1.363,1.363,0,0,0-.252-.89,2.355,2.355,0,0,0-.907-.568l-.429-.173a2.594,2.594,0,0,1-1.094-.739,1.872,1.872,0,0,1-.364-1.212,2,2,0,0,1,.51-1.438,1.835,1.835,0,0,1,1.4-.536,1.8,1.8,0,0,1,1.341.5,2.181,2.181,0,0,1,.536,1.495h-.739q-.075-1.3-1.148-1.3a1.048,1.048,0,0,0-.836.321,1.348,1.348,0,0,0-.279.912,1.25,1.25,0,0,0,.252.826,2.111,2.111,0,0,0,.863.537l.44.171a2.587,2.587,0,0,1,1.116.761,2.069,2.069,0,0,1,.375,1.319,2.1,2.1,0,0,1-.5,1.507,1.917,1.917,0,0,1-1.46.532A1.834,1.834,0,0,1,466.238,123.593Z" transform="translate(-361.451 -116.547)"/><path class="a" d="M473.189,117.324h-1.523v6.7h-.773v-6.7H469.37v-.7h3.819Z" transform="translate(-360.18 -116.519)"/><path class="a" d="M475.828,122.14h-2.167l-.472,1.887h-.815l2.017-7.4h.719l2.016,7.4H476.3Zm-.171-.676-.912-3.657-.912,3.657Z" transform="translate(-359.131 -116.519)"/><path class="a" d="M476.851,116.626h.784v6.7h2.509v.7h-3.293Z" transform="translate(-357.568 -116.519)"/><path class="a" d="M480.3,116.626h.784v6.7H483.6v.7H480.3Z" transform="translate(-356.363 -116.519)"/><path class="a" d="M484.526,117.324v2.585h2.167v.708h-2.167v2.713h2.52v.7h-3.292v-7.4h3.292v.7Z" transform="translate(-355.158 -116.519)"/><path class="a" d="M489.226,120.788h-1.191v3.239h-.782v-7.4H489.2a1.786,1.786,0,0,1,1.422.515,2.374,2.374,0,0,1,.444,1.577q0,1.587-1.093,1.952l1.307,3.357h-.836Zm-1.191-.687h1.159a.976.976,0,0,0,.832-.348,1.713,1.713,0,0,0,.262-1.035,1.783,1.783,0,0,0-.252-1.047.967.967,0,0,0-.842-.348h-1.159Z" transform="translate(-353.937 -116.519)"/><path class="a" d="M491.543,123.593a2.332,2.332,0,0,1-.51-1.566h.762a1.658,1.658,0,0,0,.339,1.079,1.136,1.136,0,0,0,.873.326,1.085,1.085,0,0,0,.863-.326,1.5,1.5,0,0,0,.285-1,1.363,1.363,0,0,0-.252-.89,2.376,2.376,0,0,0-.907-.568l-.429-.173a2.592,2.592,0,0,1-1.094-.739,1.872,1.872,0,0,1-.364-1.212,2,2,0,0,1,.51-1.438,1.835,1.835,0,0,1,1.4-.536,1.8,1.8,0,0,1,1.341.5,2.181,2.181,0,0,1,.536,1.495h-.739q-.075-1.3-1.148-1.3a1.045,1.045,0,0,0-.836.321,1.348,1.348,0,0,0-.279.912,1.25,1.25,0,0,0,.252.826,2.1,2.1,0,0,0,.863.537l.44.171a2.6,2.6,0,0,1,1.116.761,2.078,2.078,0,0,1,.375,1.319,2.1,2.1,0,0,1-.5,1.507,1.916,1.916,0,0,1-1.458.532A1.835,1.835,0,0,1,491.543,123.593Z" transform="translate(-352.617 -116.547)"/></g><path class="a" d="M435.843,94.663q-2.758-2.7-7.8-2.7h-9.83v5.911l7.273,4.95-2.244-6.7h4.761a5.407,5.407,0,0,1,4.385,1.7q1.427,1.7,1.427,5.428V106.1q0,3.58-1.427,5.237A5.452,5.452,0,0,1,428.009,113h-4.793l2.276-6.783-7.273,4.957v6h9.648q5.108,0,7.926-2.727t2.81-8.343v-3.106Q438.6,97.367,435.843,94.663Z" transform="translate(-378.038 -91.482)"/></g><path class="a" d="M379.2,85.892a29.981,29.981,0,0,0-6.516-2.316A30.637,30.637,0,0,0,337.384,102c-.208.521-.4,1.05-.594,1.578a30.657,30.657,0,0,0,4.429,28.05.385.385,0,0,0,.692-.275,24.839,24.839,0,0,1-.182-3.666,26.465,26.465,0,0,1,1.033-6.623,5.1,5.1,0,0,0,.046-2.515l0-.015c-.045-.2-.085-.4-.117-.594a22.878,22.878,0,0,1-.443-4.533,23.553,23.553,0,0,1,21.741-23.483l.49-.032a24.052,24.052,0,0,1,9.464,1.415,23.727,23.727,0,0,1,14.417,15.342l.1.372a23.366,23.366,0,0,1-3.694,20.322l-.05.069c-.046.058-.092.124-.143.189l-.034.046a23.7,23.7,0,0,1-12.179,8.369c-7.084,1.462-10.352-.978-11.852-3.281-2.461-3.778-1.283-8.872,1.027-13.031a.883.883,0,0,1,1.523-.02l5.977,9.809,8.2-30.335-30.172,11.28,9.275,3.021a.888.888,0,0,1,.317,1.341c-3.865,5.135-5.519,10.271-5.1,14.9l.032.294a1.694,1.694,0,0,0,.032.235c.027.215.046.359.066.5l.026.183c.053.286.111.58.182.867l.02.09c.019.085.039.163.065.242a5.312,5.312,0,0,0,.157.554,15.761,15.761,0,0,0,11.057,10.5,19.043,19.043,0,0,0,5.271.737,30.287,30.287,0,0,0,17.344-7.358l.1-.078A30.586,30.586,0,0,0,379.2,85.892Z"/></g></svg>