<svg xmlns="http://www.w3.org/2000/svg" width="21.901" height="21.901" viewBox="0 0 21.901 21.901"><defs><style>.a{fill:#969696;}</style></defs><g transform="translate(-165 -434.329)"><g transform="translate(165 434.329)"><g transform="translate(0 0)"><path class="a" d="M10.993,20.926H2.748a.915.915,0,0,1-.916-.913V3.588a.915.915,0,0,1,.916-.913h8.245a.913.913,0,1,0,0-1.825H2.748A2.746,2.746,0,0,0,0,3.588V20.013a2.746,2.746,0,0,0,2.748,2.738h8.245a.913.913,0,1,0,0-1.825Z" transform="translate(0 -0.85)"/></g></g><g transform="translate(172.17 438.891)"><g transform="translate(0 0)"><path class="a" d="M184.558,112.925l-5.57-5.5a.916.916,0,1,0-1.286,1.3l3.98,3.928H171.016a.916.916,0,0,0,0,1.832h10.666l-3.98,3.928a.916.916,0,1,0,1.286,1.3l5.57-5.5a.916.916,0,0,0,0-1.3Z" transform="translate(-170.1 -107.165)"/></g></g></g></svg>