<svg xmlns="http://www.w3.org/2000/svg" width="17.338" height="21.901" viewBox="0 0 17.338 21.901"><defs><style>.a{fill:#969696;}</style></defs><path class="a" d="M70.348,18.06,69.371,5.736A1.539,1.539,0,0,0,67.845,4.32H65.916V4.233a4.227,4.227,0,1,0-8.454,0V4.32H55.534a1.538,1.538,0,0,0-1.526,1.414L53.03,18.062a3.564,3.564,0,0,0,3.55,3.839H66.8a3.564,3.564,0,0,0,3.55-3.84ZM58.743,4.233a2.946,2.946,0,1,1,5.892,0V4.32H58.743ZM68.47,19.886a2.255,2.255,0,0,1-1.673.732H56.581a2.282,2.282,0,0,1-2.273-2.456l.977-12.328a.251.251,0,0,1,.249-.231h1.929v1.58a.64.64,0,1,0,1.281,0V5.6h5.892v1.58a.64.64,0,1,0,1.281,0V5.6h1.929a.252.252,0,0,1,.249.233l.977,12.324A2.262,2.262,0,0,1,68.47,19.886Z" transform="translate(-53.02)"/><g transform="translate(5.592 10.688)"><path class="a" d="M190.019,250.081a.641.641,0,0,0-.907,0l-2.864,2.864-1.1-1.1a.641.641,0,0,0-.907.907l1.555,1.555a.641.641,0,0,0,.907,0l3.318-3.318A.641.641,0,0,0,190.019,250.081Z" transform="translate(-184.052 -249.893)"/></g></svg>