<svg xmlns="http://www.w3.org/2000/svg" width="21.901" height="21.901" viewBox="0 0 21.901 21.901"><defs><style>.a{fill:#969696;}</style></defs><g transform="translate(0 0)"><path class="a" d="M138.888,133.609a5.279,5.279,0,1,0,5.279,5.279A5.285,5.285,0,0,0,138.888,133.609Zm0,9.239a3.959,3.959,0,1,1,3.959-3.959A3.964,3.964,0,0,1,138.888,142.848Zm0,0" transform="translate(-127.938 -127.938)"/><path class="a" d="M21.386,8.457,19.7,8.091a9.161,9.161,0,0,0-.542-1.306l.932-1.45A.655.655,0,0,0,20,4.518L17.382,1.9a.655.655,0,0,0-.817-.088l-1.45.932A9.161,9.161,0,0,0,13.81,2.2L13.444.515A.654.654,0,0,0,12.8,0H9.1a.654.654,0,0,0-.639.515L8.091,2.2a9.161,9.161,0,0,0-1.306.542l-1.45-.932a.655.655,0,0,0-.817.088L1.9,4.518a.655.655,0,0,0-.088.817l.932,1.45A9.161,9.161,0,0,0,2.2,8.091L.515,8.457A.655.655,0,0,0,0,9.1V12.8a.655.655,0,0,0,.515.639L2.2,13.81a9.161,9.161,0,0,0,.542,1.306l-.932,1.45a.655.655,0,0,0,.088.817L4.518,20a.655.655,0,0,0,.817.088l1.45-.932a9.161,9.161,0,0,0,1.306.542l.366,1.683A.654.654,0,0,0,9.1,21.9H12.8a.654.654,0,0,0,.639-.515L13.81,19.7a9.161,9.161,0,0,0,1.306-.542l1.45.932A.654.654,0,0,0,17.382,20L20,17.382a.655.655,0,0,0,.088-.817l-.932-1.45A9.161,9.161,0,0,0,19.7,13.81l1.683-.366A.655.655,0,0,0,21.9,12.8V9.1A.655.655,0,0,0,21.386,8.457Zm-.794,3.82-1.543.336a.655.655,0,0,0-.491.464,7.852,7.852,0,0,1-.725,1.749.654.654,0,0,0,.019.676l.855,1.329L16.83,18.706l-1.33-.855a.654.654,0,0,0-.675-.019,7.857,7.857,0,0,1-1.749.725.655.655,0,0,0-.464.491l-.336,1.543H9.624l-.336-1.543a.655.655,0,0,0-.464-.491,7.852,7.852,0,0,1-1.749-.725.655.655,0,0,0-.676.019l-1.329.855L3.195,16.83,4.049,15.5a.654.654,0,0,0,.02-.676,7.86,7.86,0,0,1-.725-1.749.655.655,0,0,0-.491-.464l-1.544-.336V9.624l1.543-.336a.655.655,0,0,0,.491-.464,7.852,7.852,0,0,1,.725-1.749A.654.654,0,0,0,4.049,6.4L3.195,5.071,5.071,3.194l1.33.855a.654.654,0,0,0,.675.019,7.857,7.857,0,0,1,1.749-.725.655.655,0,0,0,.464-.491l.336-1.543h2.653l.336,1.543a.655.655,0,0,0,.464.491,7.852,7.852,0,0,1,1.749.725.655.655,0,0,0,.676-.019l1.329-.855,1.876,1.876L17.852,6.4a.654.654,0,0,0-.02.676,7.852,7.852,0,0,1,.725,1.749.655.655,0,0,0,.491.464l1.544.336Zm0,0" transform="translate(0 0)"/></g></svg>