<svg xmlns="http://www.w3.org/2000/svg" width="81.109" height="85.202" viewBox="0 0 81.109 85.202">
  <g id="Group_1561" data-name="Group 1561" transform="translate(-76.104 6.417)">
    <g id="Group_1559" data-name="Group 1559" transform="translate(77.104 5.946)">
      <g id="Group_1558" data-name="Group 1558">
        <path id="Path_420" data-name="Path 420" d="M98.668,9.289H87.1" transform="translate(-74.7 -2.409)" fill="none" stroke="#4e4e4e" stroke-linecap="round" stroke-linejoin="round" stroke-width="2"/>
        <path id="Path_420-2" data-name="Path 420" d="M95.127,43.684h47.014a3.445,3.445,0,0,0,3.382-2.81l6.356-31.585H141.653" transform="translate(-72.77 -2.409)" fill="none" stroke="#4e4e4e" stroke-linecap="round" stroke-linejoin="round" stroke-width="2"/>
        <circle id="Ellipse_105" data-name="Ellipse 105" cx="6.823" cy="6.823" r="6.823" transform="translate(20.866 58.194)" fill="none" stroke="#4e4e4e" stroke-linecap="round" stroke-linejoin="round" stroke-width="2"/>
        <circle id="Ellipse_106" data-name="Ellipse 106" cx="6.823" cy="6.823" r="6.823" transform="translate(59.32 58.194)" fill="none" stroke="#4e4e4e" stroke-linecap="round" stroke-linejoin="round" stroke-width="2"/>
        <path id="Path_421" data-name="Path 421" d="M77.1,3.743h7.677A3.44,3.44,0,0,1,88.1,6.295L99.818,50.227a6.88,6.88,0,0,0,6.649,5.108h42.867" transform="translate(-77.104 -3.743)" fill="none" stroke="#4e4e4e" stroke-linecap="round" stroke-linejoin="round" stroke-width="2"/>
      </g>
    </g>
    <g id="Group_1563" data-name="Group 1563" transform="translate(105.78 -5.417)">
      <circle id="Ellipse_109" data-name="Ellipse 109" cx="17.619" cy="17.619" r="17.619" fill="none" stroke="#4e4e4e" stroke-linejoin="round" stroke-width="2"/>
      <path id="Path_424" data-name="Path 424" d="M106.4,10.889l7.66,6.128L126.314,3.228" transform="translate(-98.736 7.496)" fill="none" stroke="#4e4e4e" stroke-linecap="round" stroke-linejoin="round" stroke-width="2"/>
    </g>
  </g>
</svg>
