<svg xmlns="http://www.w3.org/2000/svg" width="30.045" height="27.265" viewBox="0 0 30.045 27.265">
  <g id="Group_1761" data-name="Group 1761" transform="translate(133.625 -9.181)">
    <path id="Path_524" data-name="Path 524" d="M-104.2,29.476l-10.374-17.969a4.648,4.648,0,0,0-6.349-1.7,4.655,4.655,0,0,0-1.7,1.7L-133,29.476a4.65,4.65,0,0,0,1.7,6.35,4.642,4.642,0,0,0,2.325.621h20.748A4.647,4.647,0,0,0-103.58,31.8,4.641,4.641,0,0,0-104.2,29.476Zm-1.042,4.045a3.407,3.407,0,0,1-2.983,1.723h-20.748a3.447,3.447,0,0,1-3.447-3.447,3.468,3.468,0,0,1,.461-1.723l10.374-17.966a3.446,3.446,0,0,1,4.709-1.262,3.457,3.457,0,0,1,1.259,1.262l10.374,17.966A3.4,3.4,0,0,1-105.243,33.521Z" fill="#e8b14d"/>
    <path id="Path_525" data-name="Path 525" d="M-91.77,33.606a1.572,1.572,0,0,0-1.569,1.569v5.37a1.569,1.569,0,0,0,1.567,1.569A1.567,1.567,0,0,0-90.2,40.548V35.175A1.57,1.57,0,0,0-91.77,33.606Z" transform="translate(-26.83 -15.267)" fill="#e8b14d"/>
    <path id="Path_526" data-name="Path 526" d="M-91.77,63.036a1.569,1.569,0,0,0-1.569,1.569,1.569,1.569,0,0,0,1.569,1.567A1.568,1.568,0,0,0-90.2,64.605a1.56,1.56,0,0,0-.459-1.108A1.567,1.567,0,0,0-91.77,63.036Z" transform="translate(-26.83 -34.867)" fill="#e8b14d"/>
  </g>
</svg>
