<?xml version="1.0" standalone="no"?>
<!DOCTYPE svg PUBLIC "-//W3C//DTD SVG 20010904//EN"
 "http://www.w3.org/TR/2001/REC-SVG-20010904/DTD/svg10.dtd">
<svg version="1.0" xmlns="http://www.w3.org/2000/svg"
 width="700.000000pt" height="700.000000pt" viewBox="0 0 700.000000 700.000000"
 preserveAspectRatio="xMidYMid meet">
<metadata>
Created by potrace 1.11, written by Peter Selinger 2001-2013
</metadata>
<g transform="translate(0.000000,700.000000) scale(0.100000,-0.100000)"
fill="#000000" stroke="none">
<path d="M3279 6996 c-2 -2 -42 -7 -89 -11 -46 -3 -87 -8 -90 -10 -3 -1 -32
-6 -65 -9 -74 -7 -286 -48 -398 -77 -343 -87 -697 -241 -1007 -438 -504 -320
-916 -763 -1209 -1300 -28 -51 -51 -95 -51 -98 0 -2 -20 -45 -44 -96 -56 -119
-131 -315 -168 -442 -16 -55 -34 -113 -39 -130 -10 -33 -59 -265 -64 -305 -2
-14 -10 -74 -19 -135 -38 -279 -39 -622 -1 -895 4 -25 9 -61 11 -80 27 -202
101 -482 192 -726 96 -258 299 -630 444 -817 48 -60 98 -45 92 28 -1 17 -5 66
-9 110 -10 105 -11 326 -1 445 12 142 19 193 53 380 2 14 20 86 39 160 43 163
46 248 16 400 -74 371 -76 687 -7 1055 80 421 275 842 551 1185 74 93 280 303
358 366 27 21 54 44 60 49 6 6 43 33 81 61 229 168 497 306 753 389 118 38
288 82 342 89 20 2 47 7 60 10 14 3 41 8 60 10 19 3 62 8 95 13 76 10 457 10
550 1 721 -77 1357 -416 1815 -968 336 -404 552 -918 607 -1440 16 -149 8
-552 -12 -660 -3 -14 -7 -38 -10 -55 -116 -708 -524 -1355 -1116 -1768 -315
-219 -683 -378 -954 -412 -144 -17 -211 -22 -320 -20 -187 3 -315 27 -455 82
-277 111 -468 331 -547 633 -31 116 -39 345 -18 475 33 199 97 397 192 594 72
148 99 181 150 181 69 0 47 30 377 -515 120 -198 233 -382 251 -410 17 -27 56
-91 86 -142 30 -51 57 -92 60 -93 3 0 21 55 39 123 18 67 66 246 106 397 41
151 78 289 83 305 6 17 24 84 41 150 17 66 40 149 50 185 10 36 49 178 85 315
37 138 84 313 105 390 21 77 50 183 64 235 14 52 32 122 41 155 9 33 20 74 25
90 4 17 24 89 43 160 71 263 79 290 82 305 2 8 16 58 30 110 25 90 92 338 100
370 3 8 13 49 24 90 11 41 18 76 16 78 -3 3 -191 -64 -315 -113 -19 -8 -109
-41 -200 -75 -91 -34 -181 -67 -200 -75 -60 -24 -313 -118 -355 -132 -22 -7
-49 -17 -60 -22 -11 -5 -101 -39 -200 -76 -99 -37 -225 -84 -280 -105 -55 -20
-188 -70 -295 -109 -107 -40 -211 -79 -230 -87 -19 -7 -82 -31 -140 -52 -152
-56 -645 -240 -715 -267 -33 -13 -141 -53 -240 -90 -99 -37 -189 -71 -199 -75
-15 -5 0 -13 60 -33 43 -14 268 -87 499 -162 513 -167 503 -163 522 -192 29
-43 24 -79 -19 -141 -315 -451 -469 -788 -542 -1177 -35 -189 -40 -481 -11
-626 3 -13 8 -37 11 -54 20 -112 73 -271 132 -395 282 -591 835 -967 1541
-1047 120 -14 335 -8 456 12 408 69 702 163 1045 334 357 178 683 419 968 715
61 65 112 121 112 126 0 5 4 10 9 12 7 2 79 88 129 153 313 409 540 905 646
1410 14 66 28 143 31 170 4 28 11 70 15 95 10 53 7 898 -4 950 -4 19 -16 85
-27 145 -98 534 -326 1048 -659 1485 -420 552 -1016 979 -1675 1198 -106 35
-210 67 -210 63 0 -1 -22 5 -50 13 -44 13 -128 30 -320 66 -27 5 -81 12 -120
16 -38 3 -79 9 -90 11 -23 6 -551 14 -556 9z"/>
</g>
</svg>
