<?xml version="1.0" standalone="no"?>
<!DOCTYPE svg PUBLIC "-//W3C//DTD SVG 20010904//EN"
 "http://www.w3.org/TR/2001/REC-SVG-20010904/DTD/svg10.dtd">
<svg version="1.0" xmlns="http://www.w3.org/2000/svg"
 width="192.000000pt" height="192.000000pt" viewBox="0 0 192.000000 192.000000"
 preserveAspectRatio="xMidYMid meet">
<metadata>
Created by potrace 1.11, written by Peter Selinger 2001-2013
</metadata>
<g transform="translate(0.000000,192.000000) scale(0.100000,-0.100000)"
fill="#000000" stroke="none">
<path d="M849 1900 c-227 -28 -417 -126 -582 -300 -321 -339 -340 -865 -43
-1235 200 -250 527 -384 844 -345 207 25 386 109 535 250 202 191 301 421 300
695 -2 438 -302 816 -725 915 -100 23 -239 31 -329 20z m253 -144 c263 -52
466 -205 582 -441 56 -113 75 -184 83 -307 20 -333 -157 -640 -452 -783 -136
-66 -196 -79 -360 -79 -164 0 -225 13 -360 79 -164 80 -291 207 -370 370 -58
118 -75 187 -82 321 -9 182 31 330 130 482 182 279 509 420 829 358z"/>
<path d="M810 1695 c-153 -31 -275 -97 -391 -215 -71 -71 -94 -103 -133 -181
-65 -133 -81 -199 -80 -344 0 -93 5 -137 22 -198 52 -183 165 -336 321 -436
35 -23 67 -41 71 -41 4 0 13 26 19 57 23 105 89 218 242 420 48 63 80 116 85
138 8 46 -2 98 -26 127 l-19 23 -1 -53 c0 -69 -20 -109 -84 -175 -28 -28 -69
-80 -91 -114 -43 -67 -64 -78 -136 -71 l-34 3 -3 398 c-1 218 1 397 5 396 5 0
31 -29 58 -64 28 -35 55 -64 60 -64 6 -1 30 13 54 29 170 115 434 59 550 -117
54 -80 76 -170 75 -303 -1 -136 -17 -208 -81 -356 -47 -110 -60 -175 -49 -248
l7 -47 72 38 c104 55 239 192 294 298 70 136 88 210 88 360 0 108 -4 142 -23
205 -72 228 -231 406 -447 497 -117 50 -290 65 -425 38z"/>
</g>
</svg>
